<svg width="57" height="56" viewBox="0 0 57 56" fill="none" xmlns="http://www.w3.org/2000/svg">
<path fill-rule="evenodd" clip-rule="evenodd" d="M25.3789 3.14345C22.7425 5.80766 22.168 6.49932 21.611 7.67978C20.9904 8.99495 20.9541 9.19421 20.9563 11.2644C20.9587 13.3432 20.9934 13.5285 21.6289 14.8512C22.2218 16.0859 22.8706 16.8238 27.2773 21.2776C30.0154 24.0448 32.3489 26.3015 32.4629 26.2922C32.5769 26.283 32.9758 25.9188 33.3496 25.4832L34.0289 24.6909L32.1017 22.7496L30.1744 20.8085L32.5145 18.512C35.1326 15.9426 35.867 15.5487 38.0377 15.5487C39.387 15.5487 40.2525 15.7874 41.3125 16.4523L42.0117 16.8907L42.7864 15.9972L43.5608 15.1037L43.0801 14.7283C41.6072 13.5781 39.0318 12.8613 37.1383 13.0744L36.0461 13.1971V11.1239C36.0461 9.13284 36.0169 8.99196 35.3108 7.56719C34.6858 6.30603 34.1191 5.62732 31.5325 3.04162L28.4895 0L25.3789 3.14345ZM26.3909 5.52091C23.911 8.05659 23.4078 8.92281 23.2858 10.8659C23.1439 13.1317 23.6353 14.139 26.1659 16.7674C27.3143 17.9602 28.366 18.9362 28.503 18.9362C28.9285 18.9362 32.7224 14.7586 33.1826 13.7833C33.8387 12.3925 33.9082 10.5506 33.3591 9.09139C32.9941 8.12096 32.5296 7.51618 30.7082 5.63948L28.5 3.36404L26.3909 5.52091ZM14.9065 13.8722C13.9503 15.3851 13.6159 16.6271 13.6177 18.6574L13.6193 20.471L12.2946 20.3759C9.1524 20.1502 7.58479 20.9857 3.57027 25.0256L0.5 28.1153L3.59926 31.1948C6.15123 33.7302 6.92689 34.3812 7.99268 34.8818C10.5264 36.0716 12.9181 36.0692 15.4619 34.8748C16.6099 34.3356 17.388 33.644 21.7915 29.2471C24.5528 26.49 26.8121 24.169 26.8121 24.0895C26.8121 24.0098 26.423 23.6248 25.9476 23.2338L25.0834 22.523L23.1732 24.4659L21.2633 26.4088L19.286 24.4342C18.1986 23.3482 17.0784 22.0346 16.7968 21.5155C15.7542 19.5934 15.7519 17.4933 16.79 15.4705C17.2714 14.5328 17.277 14.4806 16.9378 14.104C16.7438 13.8886 16.3407 13.5375 16.042 13.3236L15.4987 12.9353L14.9065 13.8722ZM43.2455 20.5345C41.217 21.0486 40.1611 21.8519 35.6914 26.2806C33.2977 28.6527 31.0623 30.9427 30.7241 31.3695L30.1091 32.1455L30.8931 32.8112C31.3244 33.1773 31.7651 33.4782 31.8721 33.4798C31.9793 33.4814 32.8954 32.655 33.9078 31.6433L35.7484 29.8041L37.7197 31.7748C38.804 32.8586 39.9222 34.1714 40.2046 34.6921C41.2533 36.6256 41.2269 38.9259 40.1359 40.6871L39.5519 41.6298L40.4584 42.3753L41.3649 43.1207L41.7629 42.6357C42.8781 41.2765 43.625 38.5591 43.3936 36.7013L43.2588 35.6191L44.4185 35.7452C45.8822 35.9045 47.9149 35.4856 49.3074 34.7379C49.9484 34.394 51.5188 33.0246 53.422 31.1507L56.5 28.1201L53.422 25.0133C50.8333 22.4003 50.117 21.7931 48.9164 21.1941C47.6653 20.5698 47.2721 20.4734 45.7391 20.4138C44.7767 20.3765 43.6546 20.4307 43.2455 20.5345ZM9.99697 22.9971C8.6909 23.4259 7.98712 23.9556 5.8617 26.1087L3.87589 28.1205L5.96973 30.1787C8.7324 32.8947 9.28386 33.1827 11.7199 33.1827C14.1561 33.1827 14.7073 32.8947 17.47 30.1787L19.5638 28.1203L17.4787 26.0118C16.1119 24.6295 15.035 23.7262 14.3521 23.3894C13.0938 22.7689 11.2093 22.5991 9.99697 22.9971ZM43.5922 22.9885C42.1747 23.4606 41.639 23.8569 39.5249 25.9961L37.4435 28.1023L39.4077 30.0807C41.8266 32.5173 42.8459 33.1151 44.7944 33.2406C47.2026 33.3957 47.9403 33.031 50.6982 30.3222L53.0385 28.0234L50.9961 25.9634C49.7103 24.6662 48.5826 23.72 47.9513 23.4086C46.7197 22.801 44.7307 22.6093 43.5922 22.9885ZM27.4424 26.7702C26.5257 27.7496 27.2118 29.2981 28.5624 29.2981C29.4103 29.2981 29.9894 28.6916 29.9894 27.8036C29.9894 26.4199 28.3813 25.7675 27.4424 26.7702ZM23.769 30.481C23.3675 30.9271 23.039 31.3574 23.039 31.4373C23.039 31.5172 23.8925 32.4424 24.9357 33.4931L26.8325 35.4035L24.6733 37.4968C21.9814 40.1064 21.1533 40.5496 18.9681 40.5498C17.5451 40.55 17.2553 40.4814 16.1879 39.8938L14.9965 39.2376L14.2325 40.0939L13.4688 40.9503L14.129 41.5035C15.3328 42.512 16.7503 42.933 18.9681 42.941L20.9539 42.948L20.9591 45.0403C20.964 47.0037 21.0057 47.2185 21.6352 48.5275C22.1909 49.6828 22.8184 50.444 25.2901 52.9612C26.9314 54.6324 28.3779 56 28.5046 56C28.6315 56 30.0755 54.6302 31.7138 52.9562C34.155 50.4616 34.8141 49.6615 35.367 48.5225C36.0088 47.1997 36.0413 47.0262 36.0437 44.9311C36.0461 42.7895 36.026 42.6889 35.3104 41.2446C34.6479 39.9073 34.0734 39.2577 29.537 34.715L24.4992 29.6702L23.769 30.481ZM26.3845 39.2039C23.9149 41.7137 23.4086 42.5859 23.2858 44.5421C23.1439 46.808 23.6353 47.8153 26.1659 50.4436C27.3143 51.6364 28.366 52.6124 28.503 52.6124C28.9285 52.6124 32.7224 48.4348 33.1826 47.4596C33.842 46.0617 33.9084 44.2279 33.3527 42.7487C32.9778 41.7502 32.5409 41.1823 30.7019 39.3036L28.5 37.0538L26.3845 39.2039Z" fill="#71917F"/>
</svg>
