<svg width="32" height="32" viewBox="0 0 32 32" fill="none" xmlns="http://www.w3.org/2000/svg">
<rect x="0.5" y="0.5" width="31" height="31" rx="5.5" fill="#E6F8F2"/>
<rect x="0.5" y="0.5" width="31" height="31" rx="5.5" stroke="#5a0226"/>
<path d="M7.875 8.5H9.02974C9.45447 8.5 9.82615 8.78555 9.93559 9.19594L10.2549 10.3934M12.25 17.875C10.8693 17.875 9.75 18.9943 9.75 20.375H22.875M12.25 17.875H21.5985C22.5328 15.9578 23.3481 13.972 24.0348 11.9271C20.0667 10.9137 15.9088 10.375 11.625 10.375C11.1668 10.375 10.7101 10.3812 10.2549 10.3934M12.25 17.875L10.2549 10.3934M11 22.875C11 23.2202 10.7202 23.5 10.375 23.5C10.0298 23.5 9.75 23.2202 9.75 22.875C9.75 22.5298 10.0298 22.25 10.375 22.25C10.7202 22.25 11 22.5298 11 22.875ZM21.625 22.875C21.625 23.2202 21.3452 23.5 21 23.5C20.6548 23.5 20.375 23.2202 20.375 22.875C20.375 22.5298 20.6548 22.25 21 22.25C21.3452 22.25 21.625 22.5298 21.625 22.875Z" stroke="#5a0226" stroke-width="1.5" stroke-linecap="round" stroke-linejoin="round"/>
</svg>
