<svg width="199" height="200" viewBox="0 0 199 200" fill="none" xmlns="http://www.w3.org/2000/svg">
<path fill-rule="evenodd" clip-rule="evenodd" d="M99.5003 169.481C137.873 169.481 168.981 138.373 168.981 100C168.981 61.6271 137.873 30.5195 99.5003 30.5195C61.1271 30.5195 30.0195 61.6271 30.0195 100C30.0195 138.373 61.1271 169.481 99.5003 169.481ZM131.697 88.7714C135.089 85.3796 135.089 79.8805 131.697 76.4888C128.305 73.097 122.806 73.097 119.414 76.4888L90.8152 105.088L79.5863 93.859C76.1945 90.4672 70.6954 90.4672 67.3037 93.859C63.912 97.2507 63.912 102.75 67.3037 106.142L84.6739 123.512C88.0656 126.903 93.5647 126.903 96.9564 123.512L131.697 88.7714Z" fill="#F9FAFB"/>
</svg>
